<svg xmlns="http://www.w3.org/2000/svg" width="854" height="578.206" viewBox="0 0 854 578.206"><rect width="61.012" height="21.422" transform="translate(520.501 36.497)" fill="#fff" opacity="0.15"/><rect width="61.012" height="21.422" transform="translate(621.907)" fill="#fff" opacity="0.15"/><rect width="61.012" height="21.422" transform="translate(626.114 66.25)" fill="#fff" opacity="0.15"/><rect width="61.012" height="21.422" transform="translate(430.877 90.846)" fill="#fff" opacity="0.15"/><rect width="61.012" height="21.422" transform="translate(411.521 178.914)" fill="#fff" opacity="0.15"/><rect width="61.012" height="21.422" transform="translate(503.67 176.93)" fill="#fff" opacity="0.15"/><path d="M810.524,14.856,770.13,50.992l44.6,30.249" transform="translate(-188.617 -4.28)" fill="none" stroke="#fff" stroke-miterlimit="10" stroke-width="1" opacity="0.25"/><line x1="59.119" y2="44.134" transform="translate(461.382 46.712)" fill="none" stroke="#fff" stroke-miterlimit="10" stroke-width="1" opacity="0.25"/><path d="M585.4,224.332l19.355-66.63,72.794,64.663" transform="translate(-143.374 -45.435)" fill="none" stroke="#fff" stroke-miterlimit="10" stroke-width="1" opacity="0.25"/><rect width="61.012" height="21.422" transform="translate(108.98 58.566)" fill="#fff" opacity="0.15"/><rect width="61.012" height="21.422" transform="translate(210.386 22.069)" fill="#fff" opacity="0.15"/><rect width="61.012" height="21.422" transform="translate(214.593 88.318)" fill="#fff" opacity="0.15"/><rect width="61.012" height="21.422" transform="translate(19.356 112.914)" fill="#fff" opacity="0.15"/><rect width="61.012" height="21.422" transform="translate(0 200.983)" fill="#fff" opacity="0.15"/><rect width="61.012" height="21.422" transform="translate(92.149 198.999)" fill="#fff" opacity="0.15"/><path d="M265.524,45.856,225.13,81.992l44.6,30.249" transform="translate(-55.138 -13.211)" fill="none" stroke="#fff" stroke-miterlimit="10" stroke-width="1" opacity="0.25"/><line x1="59.118" y2="44.134" transform="translate(49.861 68.781)" fill="none" stroke="#fff" stroke-miterlimit="10" stroke-width="1" opacity="0.25"/><path d="M40.4,255.332,59.756,188.7l72.794,64.663" transform="translate(-9.895 -54.366)" fill="none" stroke="#fff" stroke-miterlimit="10" stroke-width="1" opacity="0.25"/><line x2="37.894" y2="0.47" transform="translate(275.606 99.03)" fill="none" stroke="#fff" stroke-miterlimit="10" stroke-width="1" opacity="0.25"/><rect width="71.733" height="21.357" transform="translate(313.737 88.066)" fill="#fff" opacity="0.15"/><line x2="45.313" transform="translate(385.563 98.744)" fill="none" stroke="#fff" stroke-miterlimit="10" stroke-width="1" opacity="0.25"/><line x1="41.996" y1="66.099" transform="translate(271.398 32.645)" fill="none" stroke="#fff" stroke-miterlimit="10" stroke-width="1" opacity="0.25"/><ellipse cx="332.237" cy="69.766" rx="332.237" ry="69.766" transform="translate(189.526 438.674)" fill="#fff" opacity="0.1"/><path d="M881.226,391.611l-32.4,153.037h-7.013l-.772-1.13-2.234-3.278,28.055-142.961,4.259-1.681Z" transform="translate(-205.438 -112.825)" fill="#ececed"/><path d="M871.123,397.21l-30.08,147.921-2.234-3.278,28.055-142.961Z" transform="translate(-205.438 -114.438)" opacity="0.1"/><path d="M940.47,602.363l-8.329,2.531-2.024.617-2.672-5.668L881.6,402.7l4.766-1.007,10.013-2.116Z" transform="translate(-215.919 -115.118)" fill="#f6f6f6"/><path d="M932.141,605.751l-2.024.617-2.672-5.668L881.6,403.552l4.766-1.007Z" transform="translate(-215.919 -115.975)" opacity="0.1"/><path d="M427.569,391.611l-7.348,198.381-8.421,1.763-.6.126-2.339-4.093L413.541,393.5l4.5-.6Z" transform="translate(-100.138 -112.825)" fill="#f6f6f6"/><path d="M418.04,393.415,411.8,592.275l-.6.126-2.339-4.093,4.676-194.288Z" transform="translate(-100.138 -113.345)" opacity="0.1"/><path d="M473.814,661.615l-8.711,1.417-.976.157-2.671-5.353L419.039,398.68l1.222-.35,6.46-1.854Z" transform="translate(-102.629 -114.226)" fill="#f6f6f6"/><path d="M465.1,663.782l-.976.157-2.671-5.353L419.039,399.431l1.222-.35Z" transform="translate(-102.629 -114.977)" opacity="0.1"/><path d="M770.246,408.616l32.432,39.07a10.823,10.823,0,0,0,9.505,3.737l133.135-14.7a10.143,10.143,0,0,0,9.293-9.848V397.91Z" transform="translate(-214.696 -145.89)" fill="#dedddd"/><path d="M880.388,377.9h9.018v12.271a3.259,3.259,0,0,1-3.351,3.159h-2.317a3.259,3.259,0,0,1-3.351-3.159V377.9Z" transform="translate(-215.621 -108.874)" fill="#47465a"/><path d="M453.539,443.56l32.432,39.07a10.823,10.823,0,0,0,9.505,3.737l133.135-14.7a10.143,10.143,0,0,0,9.293-9.848V432.853Z" transform="translate(-137.129 -155.957)" fill="#dedddd"/><path d="M563.68,412.842H572.7v12.271a3.259,3.259,0,0,1-3.351,3.159h-2.316a3.259,3.259,0,0,1-3.351-3.159V412.842Z" transform="translate(-138.054 -118.942)" fill="#c1c1c1"/><path d="M478.267,436.967l396.011-43.49a5.692,5.692,0,0,0,5.06-4.5,5.409,5.409,0,0,0-3.114-5.861l-70.839-33.589a86.309,86.309,0,0,0-45.156-7.843L408.4,375.511a6.678,6.678,0,0,0-5.632,4.155,6.088,6.088,0,0,0,1.51,6.591l40.97,39.63a41.207,41.207,0,0,0,33.015,11.08Z" transform="translate(-124.597 -129.577)" fill="#f6f6f6"/><path d="M1080.719,405.425l-4.236-2.208s-4.573,3.174-8.3,16.544,6.962.145,6.962.145l4.676-9.132Z" transform="translate(-287.473 -147.419)" fill="#ececed"/><path d="M969.215,563.539s-4.342,19.208-6.346,24.562c-.982,2.62-5.725,5.016-10.982,6.849a77.147,77.147,0,0,1-14.4,3.543c-5.678.63-78.489-10.077-113.892-17.319-23.85-4.878-26.933-10.473-26.406-13.6a4.461,4.461,0,0,1,1.356-2.456s35.069-22.357,47.427-33.064,36.74-2.2,63.459,2.2S969.215,563.539,969.215,563.539Z" transform="translate(-221.282 -183.043)" fill="#ececed"/><path d="M1058.3,403.217s16.366,10.077-38.743,30.859c0,0-29.953,15.923-26.054,81.514a17.273,17.273,0,0,0,2.773,8.331c5.686,8.817,17.87,31.136-2.437,33.907v5.039s36.74-17.319,40.747-32.119,17.368-96.987,24.048-104.544S1069.655,406.681,1058.3,403.217Z" transform="translate(-269.289 -147.419)" fill="#ececed"/><path d="M951.885,611.421a77.143,77.143,0,0,1-14.4,3.543c-5.678.63-78.489-10.077-113.892-17.319-23.851-4.878-26.933-10.473-26.406-13.6,15.678,5.054,66.585,21.095,84.855,22.42,21.71,1.574,63.185,5.951,66.328,2.976C949.577,608.291,950.813,609.5,951.885,611.421Z" transform="translate(-221.281 -199.515)" fill="#ececed" opacity="0.1"/><path d="M749.457,745.7l31.729-136.663s5.678-14.485,18.7-13.855l12.024,5.669s-20.04-4.409-24.382,10.077S755.469,745.7,755.469,745.7Z" transform="translate(-209.604 -202.718)" fill="#ececed"/><path d="M815.808,641.372,828.5,557.926h5.678l-13.026,83.446Z" transform="translate(-199.804 -160.741)" fill="#ececed"/><path d="M1007.42,765.858,995.4,635.493s0-11.021,6.012-16.374,25.42-20.624,25.42-20.624,4.974-1.1,8.982,9.6,31.729,117.77,31.729,117.77l-5.344,2.2-34.4-123.438-23.714,21.1s-4.676,7.872-2.338,15.115,11.022,125.012,11.022,125.012Z" transform="translate(-269.839 -203.67)" fill="#ececed"/><path d="M927.717,579.158l30.059,8.187,6.68-5.983-17.368-2.2Z" transform="translate(-227.213 -166.858)" fill="#ececed"/><path d="M608.308,294.3l4.874,68.928,106.545-9.762-4.24-67.38a6.643,6.643,0,0,0-2.469-4.721,7.475,7.475,0,0,0-5.309-1.631l-92.832,7.362a6.917,6.917,0,0,0-6.569,7.2Z" transform="translate(-175.031 -111.835)" fill="#7a799c"/><path d="M722.875,358.94,616.664,369.864l-4.008.412-31.061-18.893v-4.094l105.542-8.961Z" transform="translate(-142.442 -97.474)" fill="#7a799c"/><path d="M616.664,373.664l-4.008.412-31.061-18.893v-3.666Z" transform="translate(-142.442 -101.274)" opacity="0.1"/><path d="M583.364,252.7l3.674,61.4,93.519-8.187-3.34-59.83Z" transform="translate(-142.875 -70.898)" fill="#9493b6"/><path d="M657.233,364.366l11.356,7.243,34.4-3.149-11.69-6.927Z" transform="translate(-160.967 -104.159)" opacity="0.1"/><path d="M595.749,349.815l14.362,10.076L701.96,351.7l-16.366-10.077Z" transform="translate(-145.908 -98.424)" fill="#9493b6"/><rect width="67.801" height="63.923" transform="translate(612.83 158.34)" fill="#ff6584"/><rect width="67.801" height="63.923" transform="translate(612.83 158.34)" opacity="0.1"/><path d="M876.586,303.1s9.565,24.422,0,28.931,34.273,0,34.273,0l12.354-9.393s-27.9-7.515-23.911-24.8S876.586,303.1,876.586,303.1Z" transform="translate(-240.406 -115.181)" fill="#fbbebe"/><path d="M876.586,303.1s9.565,24.422,0,28.931,34.273,0,34.273,0l12.354-9.393s-27.9-7.515-23.911-24.8S876.586,303.1,876.586,303.1Z" transform="translate(-240.406 -115.181)" opacity="0.1"/><path d="M773.056,650.073s35.867,47.717,29.889,60.868-2.79,21.416-14.745,25.925-15.144,12.775-4.782,12.4,23.911-3.006,25.9-6.387,6.775-19.538,13.55-21.792,19.527-10.9,10.361-21.417-32.261-49.271-30.477-53.191S773.056,650.073,773.056,650.073Z" transform="translate(-215.384 -217.177)" fill="#fbbebe"/><path d="M840.222,519.512s-74.125,4.509-93.254,21.416,16.738,80.03,20.723,80.782,35.07-2.254,33.874-10.52-22.317-42.081-22.317-42.081,27.5-9.393,42.642-11.648,31.882-12.775,31.882-12.775Z" transform="translate(-207.628 -180.924)" fill="#9493b6"/><path d="M827.417,504.126s1.2,41.706,12.354,43.209,0-31.937,0-31.937l-.4-12.775Z" transform="translate(-228.698 -176.058)" fill="#fbbebe"/><path d="M860.258,350.73s-20.723-5.636-24.708,9.393S830.368,427,830.368,427l-7.173,41.33s13.151-3.757,15.941-1.879l16.738-19.914Z" transform="translate(-227.664 -131.999)" fill="#6c63ff"/><path d="M860.258,350.73s-20.723-5.636-24.708,9.393S830.368,427,830.368,427l-7.173,41.33s13.151-3.757,15.941-1.879l16.738-19.914Z" transform="translate(-227.664 -131.999)" opacity="0.1"/><path d="M904.4,663.225s13.927,25.814,22.3,25.438,16.339-5.26,20.325,10.145-.8,11.272,3.985,20.289,5.579,24.8-3.587,28.555-17.535,4.133-17.933,0,7.97-4.133-1.594-18.786-29.889-41.33-38.258-43.96S904.4,663.225,904.4,663.225Z" transform="translate(-243.489 -222.328)" fill="#fbbebe"/><path d="M921.532,497.873s28.694,45.087,9.963,58.238-74.523,38.324-74.523,38.324,29.889,19.162,31.483,25.549-14.347,23.671-19.926,24.047-21.919-17.283-39.453-21.792-28.3-36.821-9.166-48.844,37.063-31.937,37.063-31.937L851.4,512.53Z" transform="translate(-224.378 -174.689)" fill="#9493b6"/><path d="M903.759,275.059c0,15.978-17.36,29.187-34.308,29.187s-30.686-12.953-30.686-28.931,13.739-28.931,30.686-28.931S903.759,259.081,903.759,275.059Z" transform="translate(-231.477 -102.234)" fill="#fbbebe"/><path d="M877.394,340.06s27.5-11.272,27.5-12.775,15.941,3.382,19.527,6.387,5.579,2.63,7.97,8.642-11.956,61.995-11.956,61.995,7.97,43.209,12.354,47.342S897.32,461.8,897.32,461.8s-26.3,4.509-30.686,6.387-12.354,4.509-10.76,0,8.369-7.89-3.188-13.526c0,0,3.985-18.411,0-26.677s-22.317-38.324-7.572-60.116,21.52-29.682,21.52-29.682S871.815,342.314,877.394,340.06Z" transform="translate(-231.649 -125.461)" fill="#6c63ff"/><path d="M879.529,489.428s-31.084,13-40.45,14.2-37.66,7.966-22.118,13.978,39.055-3.006,39.055-3.006l33.077-13.15Z" transform="translate(-225.017 -172.256)" fill="#fbbebe"/><path d="M930.849,343.446s11.479-5.235,14.667,13.176,14.347,76.648,0,85.29-47.424,22.544-47.424,22.544-19.527-12.4-10.362-16.908S918.815,430.264,922,425.755s6.409-54.835.83-63.1S930.849,343.446,930.849,343.446Z" transform="translate(-242.87 -130)" opacity="0.1"/><path d="M931.253,337.425s15.941-.751,19.129,17.659,14.347,76.648,0,85.29-47.424,22.544-47.424,22.544-19.527-12.4-10.362-16.908,31.085-17.283,34.273-21.792-2.391-51.475-7.97-59.741S931.253,337.425,931.253,337.425Z" transform="translate(-244.062 -128.463)" fill="#6c63ff"/><path d="M857.982,218.465c-4.892.628-10.14,2.315-12.6,6.35-1.2,1.975-1.594,4.291-2.522,6.394-2.561,5.8-8.78,9.27-13.27,13.916-5.852,6.056-8.758,15.182-5.307,22.7,1.336,2.911,3.507,5.405,5.152,8.172,4.592,7.719,4.837,16.99,4.967,25.839l.257,17.4a23.631,23.631,0,0,1-.778,7.9,8.659,8.659,0,0,1-5.431,5.707,14.528,14.528,0,0,0,16.391-5.277,13.113,13.113,0,0,1-4.4,12.031c7.306-1.622,13.433-6.632,17.293-12.7s5.65-13.129,6.452-20.165c.424-3.722.574-7.57-.673-11.123a34.159,34.159,0,0,0-3.865-7c-3.749-5.8-7.126-11.978-8.334-18.679s0-14.051,4.619-19.273a18.948,18.948,0,0,1,14.584-6.3,16.385,16.385,0,0,1,13.537,7.813c1.066,1.892,2.583,4.456,4.744,3.791a12.037,12.037,0,0,0,1.17-.541c2.409-1.034,5.146,1.006,6.208,3.291,3.351,7.209-2.822,15.079-3.46,22.927-.594,7.3,3.724,14.185,8.884,19.657a69.279,69.279,0,0,0,33.49,19.4,9.5,9.5,0,0,1-4.858-2.845,67.547,67.547,0,0,0,15.673-1.239c-5.607-3.984-11.254-8-15.936-12.936s-8.389-10.9-9.4-17.454c-1.355-8.792,2.118-18.312-1.853-26.369-3.63-7.366-12.634-11.482-15.922-18.989-3.34-7.625-5.505-14.25-14.348-17.57C878.8,219.666,868.41,217.127,857.982,218.465Z" transform="translate(-227.567 -94.086)" fill="#ff6584"/></svg>