<svg xmlns="http://www.w3.org/2000/svg" xmlns:xlink="http://www.w3.org/1999/xlink" width="176" height="176" viewBox="0 0 176 176"><defs><filter id="a" x="0" y="0" width="176" height="176" filterUnits="userSpaceOnUse"><feOffset dy="6" input="SourceAlpha"/><feGaussianBlur stdDeviation="6" result="b"/><feFlood flood-color="#9c9c9c" flood-opacity="0.161"/><feComposite operator="in" in2="b"/><feComposite in="SourceGraphic"/></filter></defs><g transform="translate(-42 -8)"><g transform="matrix(1, 0, 0, 1, 42, 8)" filter="url(#a)"><circle cx="70" cy="70" r="70" transform="translate(18 12)" fill="#fff"/></g><path d="M21.744-.912A13.529,13.529,0,0,1,15.072.48q-5.52,0-8.5-2.664T3.6-10.176V-16.9H0v-7.92H3.6V-32.16H14.448v7.344h5.376v7.92H14.448v6.624A2.646,2.646,0,0,0,15.072-8.4a2.124,2.124,0,0,0,1.632.672,4.24,4.24,0,0,0,2.448-.72Zm47.04-25.344L59.664,0H49.1L45.12-12.144,40.992,0H30.432l-9.12-26.256H31.584L36.1-12.384l4.7-13.872h9.216l4.56,14.016,4.7-14.016Z" transform="translate(96 107)" fill="#4285f4"/></g></svg>