<svg xmlns="http://www.w3.org/2000/svg" width="241" height="252" viewBox="0 0 241 252"><g transform="translate(7.5 7.5)"><path d="M0,118.5C0,183.947,50.591,237,113,237s113-53.053,113-118.5S175.409,0,113,0,0,53.061,0,118.5" fill="rgba(255,255,255,0.6)" stroke="#fff" stroke-width="15"/><path d="M5.682,9.271h92.01v32.7H65.76v83.647H36.347v-83.2H5.682V9.271" transform="translate(33.211 57.277)" fill="#eaf0fb"/><path d="M45.529,42V9.284H64.873c.205,0,.411-.007.616-.007,21.7,0,39.283,18.512,39.283,41.346S87.187,91.969,65.489,91.969l-.63.007H43.852v33.608H16.116V60.809h50.94a9.429,9.429,0,0,0,9.254-9.367A9.156,9.156,0,0,0,67.4,42.059L45.529,42" transform="translate(94.197 57.314)" fill="#eaf0fb"/></g></svg>