<?xml version="1.0" encoding="utf-8"?>
<!-- Generator: Adobe Illustrator 22.0.0, SVG Export Plug-In . SVG Version: 6.00 Build 0)  -->
<svg version="1.1" id="Layer_1" xmlns="http://www.w3.org/2000/svg" xmlns:xlink="http://www.w3.org/1999/xlink" x="0px" y="0px"
	 viewBox="0 0 1277.5 1200" style="enable-background:new 0 0 1277.5 1200;" xml:space="preserve">
<style type="text/css">
	.st0{fill:#202343;}
</style>
<g>
	<g>
		<path class="st0" d="M342.8,788.5V259.8H47.6V50.6h828v209.1H580.4v528.7c0,65.6-53.2,118.8-118.8,118.8h0
			C396,907.4,342.8,854.2,342.8,788.5z"/>
		<path class="st0" d="M644.2,323.5v465c0,100.7-81.9,182.6-182.6,182.6c-100.7,0-182.6-81.9-182.6-182.6v-465H47.6v466.7
			c0,57,9.8,108.7,29.3,155c19.4,46.3,47.2,86.2,83.1,119.5c36,33.3,79.4,58.6,130.2,76.1c50.8,17.4,107.5,26.1,170.2,26.1
			c63.5,0,120.6-8.7,171.4-26.1c50.8-17.5,94.4-42.8,130.8-76.1c36.4-33.3,64.3-73.1,83.8-119.5c19.4-46.3,29.2-98,29.2-155V323.5
			H644.2z"/>
	</g>
	<g>
		<polygon class="st0" points="1231.4,440.4 962.8,360.2 962.8,286.5 1109.7,236.7 962.8,186.9 962.8,113.2 1231.4,33 1231.4,110.2 
			1067.9,153.8 1231.4,207.5 1231.4,265.8 1067.9,319.5 1231.4,363.2 		"/>
		<path class="st0" d="M1231.4,607.3v-78.4L962.8,426.7v78.7l45.7,15.7v94l-45.7,15.7v78.7L1231.4,607.3z M1142.8,568.1l-77,27v-54
			L1142.8,568.1z"/>
		<path class="st0" d="M1071.7,881.7c4.8,17.4,13.3,31,25.3,40.3c12.9,10,29.8,15.1,50.4,15.1c11.4,0,22.3-1.9,32.3-5.6
			c10.1-3.7,19.1-9.3,26.8-16.6c7.7-7.3,13.8-16.7,18.3-28c4.4-11.2,6.7-24.5,6.7-39.4V738.3H962.8V812h94.9l-94.9,61.2v92
			L1071.7,881.7z M1121.5,851.8c-5.2-6.7-7.8-16.6-7.8-29.5V812h59.7v10.3c0,12.9-2.6,22.8-7.8,29.5c-5.1,6.6-12.3,9.8-22,9.8
			S1126.6,858.4,1121.5,851.8z"/>
		<polygon class="st0" points="1168.1,1064.9 1129.4,1064.9 1129.4,1141.7 1066.1,1141.7 1066.1,1064.9 1026,1064.9 1026,1146.2 
			962.8,1146.2 962.8,991.1 1231.4,991.1 1231.4,1146.2 1168.1,1146.2 		"/>
	</g>
</g>
</svg>
