<?xml version="1.0" encoding="utf-8"?>
<!-- Generator: Adobe Illustrator 22.0.0, SVG Export Plug-In . SVG Version: 6.00 Build 0)  -->
<svg version="1.1" id="Layer_1" xmlns="http://www.w3.org/2000/svg" xmlns:xlink="http://www.w3.org/1999/xlink" x="0px" y="0px"
	 viewBox="0 0 908.3 1200" style="enable-background:new 0 0 908.3 1200;" xml:space="preserve">
<style type="text/css">
	.st0{fill:#202343;}
</style>
<g>
	<path class="st0" d="M332.5,784V242.7H30.4V28.6H878v214.1H575.8V784c0,67.2-54.5,121.6-121.6,121.6h0
		C387,905.6,332.5,851.2,332.5,784z"/>
	<path class="st0" d="M641.1,308v476c0,103-83.9,186.9-186.9,186.9c-103.1,0-186.9-83.9-186.9-186.9V308h-237v477.8
		c0,58.3,10,111.3,30,158.7c19.9,47.4,48.3,88.2,85.1,122.3c36.9,34.1,81.2,60,133.3,77.9c52,17.8,110.1,26.8,174.2,26.8
		c65,0,123.5-8.9,175.5-26.8c52-17.9,96.7-43.8,133.9-77.9c37.3-34.1,65.9-74.9,85.8-122.3C868,897,878,844.1,878,785.8V308H641.1z"
		/>
</g>
</svg>
