<?xml version="1.0" standalone="no"?>
<!DOCTYPE svg PUBLIC "-//W3C//DTD SVG 20010904//EN"
 "http://www.w3.org/TR/2001/REC-SVG-20010904/DTD/svg10.dtd">
<svg version="1.0" xmlns="http://www.w3.org/2000/svg"
 width="700.000000pt" height="700.000000pt" viewBox="0 0 700.000000 700.000000"
 preserveAspectRatio="xMidYMid meet">
<metadata>
Created by potrace 1.11, written by Peter Selinger 2001-2013
</metadata>
<g transform="translate(0.000000,700.000000) scale(0.100000,-0.100000)"
fill="#000000" stroke="none">
<path d="M1705 5868 c-81 -66 -336 -329 -385 -396 -24 -34 -48 -62 -52 -62 -5
0 -8 -5 -8 -11 0 -7 -15 -30 -34 -53 -18 -23 -41 -56 -50 -73 l-17 -33 301 0
300 0 0 335 c0 184 -1 335 -2 335 -2 -1 -25 -19 -53 -42z"/>
<path d="M2333 4342 l-43 -3 0 -145 0 -144 -70 0 -70 0 -1 -32 c-1 -38 -1
-183 0 -244 l1 -41 70 2 70 1 0 -163 c0 -90 0 -165 1 -168 20 -116 51 -185
109 -243 81 -80 227 -123 396 -116 72 3 214 39 214 54 0 7 -79 241 -95 282 -6
14 -11 16 -27 7 -56 -30 -119 -22 -145 18 -15 23 -18 52 -19 175 -1 81 1 148
5 149 3 1 51 2 106 3 l100 1 1 158 1 157 -108 0 -107 0 1 141 c1 77 0 144 -3
147 -5 7 -307 10 -387 4z"/>
<path d="M3000 4100 c0 -4 16 -54 36 -111 44 -130 268 -771 299 -859 l23 -65
211 -2 c116 -1 211 0 211 1 0 3 148 440 156 460 5 13 30 -53 86 -222 l78 -240
212 2 211 1 34 100 c19 55 75 217 125 360 138 400 186 538 193 562 l6 22 -189
-1 -188 -1 -88 -266 c-49 -146 -91 -269 -95 -274 -5 -5 -139 384 -156 453 -1
3 -7 23 -14 46 l-13 41 -177 1 c-97 1 -181 -2 -188 -6 -6 -4 -14 -19 -17 -32
-3 -14 -40 -128 -84 -255 -43 -126 -81 -237 -84 -245 -2 -8 -16 22 -30 65
-118 362 -152 461 -161 467 -14 9 -397 7 -397 -2z"/>
</g>
</svg>
